<svg width="128" height="128" viewBox="0 0 128 128" fill="none" xmlns="http://www.w3.org/2000/svg">
<circle cx="64" cy="64" r="46" fill="white"/>
<path d="M51 91C51 102.046 42.0457 111 31 111C19.9543 111 11 102.046 11 91C11 79.9543 19.9543 71 31 71C42.0457 71 51 79.9543 51 91Z" fill="#FF9F8A"/>
<path d="M117 91C117 102.046 108.046 111 97 111C85.9543 111 77 102.046 77 91C77 79.9543 85.9543 71 97 71C108.046 71 117 79.9543 117 91Z" fill="#FF9F8A"/>
<circle cx="46.5" cy="72.5" r="6" fill="black" stroke="black" stroke-width="3"/>
<circle cx="81.5" cy="72.5" r="6" fill="black" stroke="black" stroke-width="3"/>
<path d="M49 88V88C56.3252 97.9325 71.1748 97.9325 78.5 88V88" stroke="black" stroke-width="4"/>
<g clip-path="url(#clip0_55_2)">
<path d="M18.0001 49L16 55.5C16 55.5 23.0543 58.3329 28.0272 55.1665C33.0001 52 34.5578 45.9279 34.5578 45.9279L20.0001 43.5L18.0001 49Z" fill="black" stroke="black"/>
<path d="M50.0308 50.8588L52.0308 57.3588C52.0308 57.3588 44.9766 60.1917 40.0037 57.0253C35.0308 53.8588 33.4731 47.7867 33.4731 47.7867L48.0308 45.3588L50.0308 50.8588Z" fill="black" stroke="black"/>
<path d="M84 53.7879L64 40.788C64 40.788 74 47.788 88 50.788C102 53.7879 112 53.7879 112 53.7879C112 53.7879 106.5 34.788 92.5 23.7879C79 14.288 61.2697 13.1188 49 17.288C29.7308 23.8355 21 42.788 21 42.788C21 42.788 28 48.288 47 51.788C66 55.288 84 53.7879 84 53.7879Z" fill="black" stroke="black"/>
</g>
<defs>
<clipPath id="clip0_55_2">
<rect x="18" y="18" width="92" height="92" rx="46" fill="white"/>
</clipPath>
</defs>
</svg>
